<svg xmlns="http://www.w3.org/2000/svg" viewBox="0 0 45 50">
<path id="Selection" fill="#000000" stroke="black" stroke-width="1"
d="M 43.78,21.91
C 41.10,19.23 33.35,11.48 31.00,9.04
27.91,6.00 23.39,9.52 26.39,13.13
30.22,17.04 30.36,17.34 32.00,19.00
27.36,19.00 15.17,19.00 7.91,19.04
3.13,18.91 2.65,22.35 2.83,24.04
2.91,28.65 2.83,36.40 2.83,40.96
2.83,40.96 9.00,41.00 9.00,41.00
9.00,37.89 8.87,32.39 8.96,27.09
8.91,25.13 10.09,25.04 11.26,25.04
16.87,25.09 27.81,25.00 32.00,25.00
30.11,26.90 31.17,26.09 26.48,30.87
22.48,34.30 27.39,38.74 30.70,35.04
34.74,30.83 38.43,27.52 43.78,21.91 Z" />
</svg>
