<svg xmlns="http://www.w3.org/2000/svg" viewBox="0 0 45 50">
<path id="ArrowLeft" fill="#000000" stroke="black" stroke-width="1"
d="M 1.22,21.91
C 3.90,19.23 11.65,11.48 14.00,9.04
17.09,6.00 21.61,9.52 18.61,13.13
14.78,17.04 14.64,17.34 13.00,19.00
17.64,19.00 29.83,19.00 37.09,19.04
41.87,18.91 42.35,22.35 42.17,24.04
42.09,28.65 42.17,36.40 42.17,40.96
42.17,40.96 36.00,41.00 36.00,41.00
36.00,37.89 36.13,32.39 36.04,27.09
36.09,25.13 34.91,25.04 33.74,25.04
28.13,25.09 17.19,25.00 13.00,25.00
14.89,26.90 13.83,26.09 18.52,30.87
22.52,34.30 17.61,38.74 14.30,35.04
10.26,30.83 6.57,27.52 1.22,21.91 Z" />
</svg>
